<svg version="1.1" id="DianaLogo" xmlns="http://www.w3.org/2000/svg" xmlns:xlink="http://www.w3.org/1999/xlink" x="0px" y="0px" viewBox="0 0 512 512" style="enable-background:new 0 0 512 512;" xml:space="preserve">
  <g>
    <ellipse fill="#FFEFA1" cx="341.3" cy="171" rx="56.5" ry="56.5" />
    <path fill="#FFEFA1" d="M255.7,431.7c82.1,0.3,151.2-55.6,171-131.3c-15.7,4.1-32.2,6.1-49.3,5.7c-93.3-2.3-169.2-78.3-171.6-171.6
		c-0.4-17.1,1.6-33.6,5.7-49.3c-75.8,19.9-131.6,89-131.3,171.1C80.6,352.5,159.3,431.3,255.7,431.7z" />
    <path fill="#FED57F" d="M256.3,431.7c68.1,0,127.2-38.7,156.5-95.3C388.6,348.9,361.1,356,332,356c-97.3,0-176.1-78.9-176.1-176.2
		c0-29.2,7.1-56.6,19.6-80.8c-56.6,29.3-95.3,88.4-95.3,156.5C80.2,352.8,159.1,431.7,256.3,431.7z" />
    <path fill="#F6A555" d="M256.3,431.7c56.3,0,106.5-26.5,138.7-67.6c-29.9,23.4-67.6,37.4-108.5,37.4c-97.3,0-176.1-78.9-176.1-176.2
		c0-40.9,14-78.6,37.4-108.5c-41.2,32.2-67.6,82.4-67.6,138.8C80.2,352.8,159.1,431.7,256.3,431.7z" />
  </g>
</svg>