<?xml version="1.0" encoding="utf-8"?>
<!-- Generator: Adobe Illustrator 25.3.1, SVG Export Plug-In . SVG Version: 6.00 Build 0)  -->
<svg version="1.1" id="DianaCharacter" xmlns="http://www.w3.org/2000/svg" xmlns:xlink="http://www.w3.org/1999/xlink" x="0px" y="0px"
	 viewBox="0 0 309.7 478.8" enable-background="new 0 0 309.7 478.8" xml:space="preserve">
<g>
	<path fill="#F8B682" d="M84.8,268c1.5-1.6,2.3-3.9,1.6-4.5c-0.6-0.6-3.8,0.3-5.3,1.8c-1.5,1.6-1.4,2.7-0.8,3.2
		C81.1,269.2,83.3,269.6,84.8,268z"/>
	<path fill="#FFE4B2" d="M131.8,83.2c-10.9-6.8-12-20.2-12-20.2l7.1,8.3l-1.1-11.9C129.8,66,133.1,73.7,131.8,83.2z"/>
	<path fill="#FFE4B2" d="M122.6,87.1c-10.9-6.8-12-20.2-12-20.2l7.1,8.3l-1.1-11.9C120.6,69.9,123.8,77.6,122.6,87.1z"/>
	<path fill="#FFE4B2" d="M114.1,91.2c-10.9-6.8-12-20.2-12-20.2l7.1,8.3l-1.1-11.9C112.1,74,115.4,81.7,114.1,91.2z"/>
	<path fill="#FFE4B2" d="M105.2,94.7c-13.3-7-15.6-22.5-15.6-22.5l9,9.1l-2.3-13.7C101.4,74.9,105.9,83.6,105.2,94.7z"/>
	<polygon fill="#A92E2E" points="135.2,78.2 134.5,83.6 100.4,98.5 95.9,95.4 144,190.9 151.7,193 169.3,185.3 173,178.2 	"/>
	<polygon fill="#811F20" points="135.2,78.2 134.5,83.6 100.4,98.5 95.9,95.4 101.3,106.1 131.3,91.5 111.5,126.4 144,190.9 
		151.7,193 169.3,185.3 173,178.2 	"/>
	<polygon fill="#FFCF52" points="99.1,104.1 94.1,93.7 135.8,75.6 139.5,86.1 	"/>
	<path fill="#F7AA4B" d="M135.8,75.6l-8.1,3.5c1.2,1,1.9,2.1,2.1,3.4c0.8,5.5-9.2,11.5-22.3,13.3c-4.4,0.6-8.6,0.7-12.3,0.2l3.9,8.1
		l40.4-18L135.8,75.6z"/>
	<path fill="#A92E2E" d="M182.6,39.6c-2-10.2-9.4-10.8-9.4-10.8s2.1-7.5-1.7-13.2c-3.8-5.6-13.6-1.3-13.6-1.3s-2.2-6.4-11.5-3.6
		c-9.4,2.9-6.1,7.4-6.1,7.4s-3.3-3.2-8.2-0.1c-4.9,3.1-1.6,12.3-1.6,12.3c-11.4,1.8-13.9,13.2-13.8,22.7
		c0.1,9.5,10.1,10.4,10.1,10.4c-2.5,4.3,3.1,26.9,22.7,13.7l14.5,0.9c19.5-2.5,14.2-23,14.2-23S184.6,49.8,182.6,39.6z"/>
	<path fill="#851F20" d="M182.6,39.6c-0.1-0.4-0.2-0.8-0.3-1.2c-0.1,0-0.2,0.1-0.2,0.1c-4.7,1.1-6.7-2-6.7-2s1.8,4.1-6.6,3.9
		c-8.3-0.2-8.8-5.4-8.8-5.4s-9,0.8-11-4.2c-1.9-5,1.4-10,1.4-10s-5.7-2.1-5.5-9.6c-7.4,2.9-4.5,6.8-4.5,6.8s-3.3-3.2-8.2-0.1
		c-4.9,3.1-1.6,12.3-1.6,12.3c-11.4,1.8-13.9,13.2-13.8,22.7c0.1,9.5,10.1,10.4,10.1,10.4c-2.5,4.3,3.1,26.9,22.7,13.7l14.5,0.9
		c19.5-2.5,14.2-23,14.2-23S184.6,49.8,182.6,39.6z"/>
	<path fill="#F8B682" d="M287.3,239.1c-29.8-51.6-95.1-143.5-99.1-146.2c-4.1-2.7-1.7,33.7,2.6,38.5c4.4,4.8,94.7,108.7,94.7,108.7
		L287.3,239.1z"/>
	<path fill="#F19169" d="M189.2,108.2c-0.7-0.9-2.4-2.3-2.9,0.8c0.6,9.4,2.3,19.9,4.5,22.3c4.4,4.8,94.7,108.7,94.7,108.7l-2.3-4.5
		C261.7,208.1,193.4,113.4,189.2,108.2z"/>
	<path fill="#F8B682" d="M153.1,46.7l-7.3,4c0,0,7.6,25.2-3.7,40.1l31.5-7.6C151.2,69.9,153.1,46.7,153.1,46.7z"/>
	<path fill="#F8B682" d="M188.7,93.4c-1.1-0.9-23.6-16.8-27.4-16.3c-3.8,0.6-24.7,18.1-24.7,18.1l34.6,52.8l27.8-9.1
		C199,138.9,189.8,94.3,188.7,93.4z"/>
	<path fill="#F19169" d="M139.1,92.3c-0.6,0.5-2.5,2.9-2.5,2.9l34.6,52.8l27.8-9.1c0,0-0.7-3.3-1.2-5.8L139.1,92.3z"/>
	<path fill="#F8B682" d="M83.6,271.5c13.7-61,49.5-173.4,52.6-177.3c3-4,10.7,33.5,7.9,39.6c-2.8,6.1-58.6,138.1-58.6,138.1
		L83.6,271.5z"/>
	<path fill="#F19169" d="M136.2,94.1c-0.6,0.7-2.3,5.4-4.9,12.8c-0.8,2.4,1.9,29.7,0.3,33.5c-2.1,5-35.1,98.9-47.7,131.1l1.7,0.3
		c0,0,55.8-132,58.6-138.1C146.9,127.6,139.2,90.2,136.2,94.1z"/>
	<polygon fill="#F8B682" points="144.6,286.3 110.1,468.3 111.5,468.3 183.8,250.7 	"/>
	<path fill="#F19169" d="M142,376.5l41.8-125.9l-39.2,35.7l-19.8,104.5C130.5,384.5,136.4,379.6,142,376.5z"/>
	<polygon fill="#F8B682" points="233.1,269.4 282.5,468.3 281.1,468.3 199.3,259.4 	"/>
	<path fill="#F19169" d="M243.2,309.9l-10.1-40.5l-33.8-10.1l34.6,88.3C236,333.3,239.2,320.5,243.2,309.9z"/>
	<path fill="#FFE4B2" d="M127.7,349.9c46.4-6.4,110.5-72.1,110.5-72.1l-12.4-45.4l-85.3,38.4L127.7,349.9z"/>
	<path fill="#F8D390" d="M163.1,314.2c19-34.1,51.5-53.3,73.2-43.4l-10.5-38.4l-85.3,38.4l-12.7,79.1c7.8-1.1,16-3.8,24.4-7.6
		C154.2,333.1,157.9,323.6,163.1,314.2z"/>
	<path fill="#C1B137" d="M188.9,167.6l-30.2,14.7c-25.9,55.4-26.3,120.1-26.3,120.1s58.9-14,96.1-65.4
		C228.5,236.9,215.9,183.4,188.9,167.6z"/>
	<path fill="#AA972A" d="M154.2,294.7c3.3-1.4,6.9-3.1,10.7-5c-14.1-40.6,3.5-69.4,3.5-69.4C154.6,240.4,152.4,265.5,154.2,294.7z"
		/>
	<path fill="#AA972A" d="M145.9,286.4c1.5-44,21.9-85.1,46.5-88c16.9-2,29.9,14.6,35.1,39.8c0.3-0.5,0.7-0.9,1-1.3
		c0,0-12.6-53.5-39.6-69.4l-30.2,14.7c-25.9,55.4-26.3,120.1-26.3,120.1s5.3-1.3,13.6-4.4C145.8,294.2,145.7,290.4,145.9,286.4z"/>
	<path fill="#FFE4B2" d="M149.1,198.5l-3.8,15.7c0,0,33.2-11.3,57-36.9l-7.9-9.6L149.1,198.5z"/>
	<path fill="#F8D390" d="M177.1,192.6c8.9-6,16.2-10.7,21.5-11.4c1.3-1.2,2.5-2.5,3.7-3.8l-7.9-9.6l-45.3,30.8l-3.8,15.7
		c0,0,4.4-1.5,11.1-4.6C160.1,204.3,168.2,198.6,177.1,192.6z"/>
	<path fill="#C1B137" d="M166.9,142c-17.5,40.5-20.2,64.3-20.2,64.3s28.4-9,53-34.1c0,0-22.8-19.4-18-35.4
		C186.5,120.8,166.9,142,166.9,142z"/>
	<path fill="#AA972A" d="M179.9,165.5c5.9-1.6,11.6,0.1,16.3,3.4c-6.2-6.2-18.1-20.1-14.5-32.1c4.8-16-14.8,5.2-14.8,5.2
		c-17.5,40.5-20.2,64.3-20.2,64.3S155.7,171.8,179.9,165.5z"/>
	<path fill="#C1B137" d="M142.1,143.8c0.8,3.2,17,18,17,18l26.4-6.4c0,0,15.9-14.5,15.4-16.7c-0.5-2.2-63.2-46-63.2-46l-1.2,1.3
		C136.5,94,141.1,139.7,142.1,143.8z"/>
	<path fill="#AA972A" d="M137.4,93.8v8.9c0.9,0.5,1.9,0.8,3.1,0.8c2.3,0,4.3-1.3,5.4-3.2L137.4,93.8z"/>
	<path fill="#AA972A" d="M140.2,100.1c5.5,3,54.8,39.9,55.2,41.8c0.5,1.9,4.1-1.6,4.1-1.6l-59.1-43.1L140.2,100.1z"/>
	<path fill="#AA972A" d="M184,144.5c-17,3.6-35.5,11.5-44.8-44.4c-0.3-1.7-2-0.7-2.2-2.6c1.1,10.8,3.3,43.6,4.2,47
		c0.8,3.2,17.2,18.7,17.2,18.7l27.8-6.7c0,0,12.3-12.9,14.6-16.9C196.3,141.4,190.9,143,184,144.5z"/>
	<g>
		<path fill="#FFCF52" d="M169,24.8c-0.4-1.1-2.8-3.6-3.7-4.2c-0.5,1-0.5,3.9-0.1,5c0.4,1.1,2.3,1.2,2.5,1.2
			C167.9,26.7,169.4,25.9,169,24.8z"/>
		<path fill="#FFCF52" d="M168.8,42.4c-0.5-0.8-0.6-4-0.4-5.3c1.2,0,3.5,1.6,4,2.7c0.5,1-1.1,2.6-1.3,2.7
			C170.8,42.6,169.2,43.2,168.8,42.4z"/>
		<path fill="#FFCF52" d="M169,36.4c-0.9-0.6-2.9-3.4-3.6-4.5c1-0.3,4.1,0.3,5.2,1.1c1,0.8,0.5,2.6,0.4,2.8
			C170.9,36,169.9,37,169,36.4z"/>
		<path fill="#FFCF52" d="M166,30.8c-0.7-0.3-2.6-2.4-3.3-3.5c1.1-0.5,4.5-0.1,5.4,0.7c0.8,0.6-0.1,2.1-0.3,2.3
			C167.8,30.4,166.7,31.1,166,30.8z"/>
		<path fill="#FFCF52" d="M169.5,30.7c-0.2-1.5,0.7-5,1.2-5.9c0.9,0.7,2.5,3.5,2.8,4.8c0.3,1.4-1.3,2.6-1.5,2.7
			C171.8,32.3,169.8,32.3,169.5,30.7z"/>
		<path fill="#FFCF52" d="M171.7,36.8c0.2-1.4,2-4.7,2.8-5.7c0.7,1,1.5,4.4,1.3,5.8c-0.2,1.4-2,1.9-2.3,1.9
			C173.2,38.8,171.5,38.2,171.7,36.8z"/>
		<path fill="#FFCF52" d="M170.4,44.2c0.8-1.3,4.2-3.9,5.4-4.5c0.3,1.3-0.6,4.8-1.4,6.1c-0.8,1.3-2.9,1.1-3.2,1
			S169.5,45.5,170.4,44.2z"/>
	</g>
	<g>
		<path fill="#FFCF52" d="M148,24.3c0.7-1.1,3.6-3.4,4.7-4c0.3,1.1-0.3,4.2-1,5.3c-0.7,1.1-2.6,1-2.8,0.9
			C148.6,26.5,147.3,25.4,148,24.3z"/>
		<path fill="#FFCF52" d="M144.3,43c0.7-0.8,1.5-4.2,1.6-5.6c-1.2-0.1-4,1.2-4.7,2.3c-0.7,1,0.6,2.9,0.8,3.1
			C142.2,42.9,143.7,43.8,144.3,43z"/>
		<path fill="#FFCF52" d="M145.4,36.6c1.1-0.5,3.8-3.2,4.7-4.4c-1-0.5-4.3-0.2-5.6,0.5c-1.2,0.7-1.1,2.7-1.1,2.9
			C143.5,35.9,144.4,37.1,145.4,36.6z"/>
		<path fill="#FFCF52" d="M149.7,31.1c0.8-0.3,3.2-2.2,4.2-3.3c-1-0.7-4.6-0.7-5.8,0c-1,0.6-0.4,2.3-0.2,2.4
			C148,30.4,149,31.3,149.7,31.1z"/>
		<path fill="#FFCF52" d="M146.1,30.4c0.5-1.6,0.4-5.5,0.1-6.5c-1.1,0.7-3.4,3.4-4,4.8c-0.6,1.5,0.7,2.9,1,3.1
			C143.5,31.9,145.6,32.1,146.1,30.4z"/>
		<path fill="#FFCF52" d="M142.6,36.7c0.1-1.5-1-5.3-1.6-6.4c-1,1-2.5,4.5-2.6,6c-0.1,1.5,1.7,2.3,1.9,2.3
			C140.6,38.6,142.5,38.2,142.6,36.7z"/>
		<path fill="#FFCF52" d="M142.3,44.8c-0.6-1.5-3.5-4.7-4.6-5.5c-0.5,1.3-0.5,5.2,0.1,6.7c0.6,1.5,2.8,1.6,3.1,1.5
			C141.1,47.4,142.9,46.3,142.3,44.8z"/>
	</g>
	<path fill="#F8B682" d="M92.3,468.8h19.2c0,0,2.5-5.3-0.5-6C108.1,462,92.3,468.8,92.3,468.8z"/>
	<path fill="#F8B682" d="M299.7,468.8h-19.2c0,0-2.5-5.3,0.5-6C283.9,462,299.7,468.8,299.7,468.8z"/>
	<path fill="#AA972A" d="M172.1,172.9c0,0-15.2,9.4-25.3,32.7c-0.1,0.4-0.1,0.6-0.1,0.6s4.2-1.3,10.8-4.4
		C161.1,187.1,166.7,178.6,172.1,172.9z"/>
	<path fill="#FFE4B2" d="M138.8,97.1c0,0,58.2,41.4,58.5,43.8c0.2,1.5-16.6,9.5-28.8,15c-6.9,3.1-12.3,5.5-12.3,5.5l2,2
		c0,0,47.4-17.7,43.4-24.6c-1.4-2.4-61.6-44.8-61.6-44.8L138.8,97.1z"/>
	<path fill="#F8D390" d="M201.8,139.2c-1.4,0.5-2.9,1-4.6,1.6c0,0,0.1,0.1,0.1,0.1c0.2,1.5-16.6,9.5-28.8,15
		c-6.9,3.1-12.3,5.5-12.3,5.5c-1,0.9,0.7,3.2,2,2.6C158.2,163.9,203.5,146.3,201.8,139.2z"/>
	<path fill="#F19169" d="M149.2,93.3l11-1.9C144,89.1,144.2,94.3,149.2,93.3z"/>
	<path fill="#F19169" d="M171.8,89.4l-7.6,1.6C173.7,83.9,175.4,88.9,171.8,89.4z"/>
	<path fill="#A92E2E" d="M181.9,88.4c-0.5-1.1-1.2-1.3-1.9-1.2c4.4,48.2-26.2,75.5-26.2,75.5l2.3,4.1
		C156.1,166.8,189.3,133.7,181.9,88.4z"/>
	<path fill="#811F20" d="M166.7,146.1c-6.5,10.8-12.9,16.5-12.9,16.5l2.3,4.1c0,0,7.7-7.7,14.9-20.7
		C169.5,146.6,168,146.6,166.7,146.1z"/>
	<path opacity="0.6" fill="#C84644" d="M171.8,82c-0.4-0.2-0.7-0.4-1.1-0.7c-19.3-13.5-17.6-34.6-17.6-34.6l-7.3,4
		c0,0,7.5,24.7-3.4,39.7c-0.8,0.6-1.5,1.2-2.2,1.8c4.5-0.2,9.6-1,14.9-2.5C161.7,87.7,167.5,85,171.8,82z"/>
	<path fill="#F8B682" d="M163.2,72.5c-12.5-3.8-16.7-15.1-17.3-21.6c-0.7-6.5,4.8-17.4,11.1-17.4c9.5,0,12.2,10.4,12.8,18.6
		C170.6,62.2,163.2,72.5,163.2,72.5z"/>
	<path fill="#F8B682" d="M144.1,50.3c-2-2.4-4.8,0.5-4,2.5c0.8,2,5.1,3.8,5.5,2.7C145.9,54.3,145.2,51.6,144.1,50.3z"/>
	<path fill="#EB7D5A" d="M143.6,51.2c-1.2-1.5-3,0.3-2.5,1.6c0.5,1.2,3.2,2.4,3.4,1.6C144.7,53.7,144.2,52,143.6,51.2z"/>
	<path fill="#F8B682" d="M144.1,52.4c-0.8-1-1.9,0.2-1.6,1c0.3,0.8,2,1.5,2.2,1.1C144.8,54,144.5,52.9,144.1,52.4z"/>
	
		<ellipse transform="matrix(0.5012 -0.8653 0.8653 0.5012 -13.4004 168.2505)" fill="#FFCF52" cx="139.3" cy="95.7" rx="5.6" ry="6.4"/>
	
		<ellipse transform="matrix(0.5012 -0.8653 0.8653 0.5012 -12.3805 168.1909)" fill="#FFE783" cx="139.7" cy="94.8" rx="4.2" ry="4.7"/>
	<g>
		
			<rect x="91" y="166.4" transform="matrix(0.3203 -0.9473 0.9473 0.3203 -166.8546 251.0676)" fill="#6E2E2F" width="1.1" height="150.8"/>
	</g>
	<path fill="#A92E2E" d="M176.9,262.4c-0.5-0.1-1-0.2-1.5-0.4c-17.1-5.7-29.3,27.4-92.8,6.2c-62.8-20.9-53-53.8-69.7-60.3
		c-3.5,1.9-4,3.8-0.1,5.1c16.9,5.6,15,44.8,67.6,62.3c52.6,17.5,74.8-14.9,91.5-9.4C177,267.7,178.4,266.1,176.9,262.4z"/>
	<path fill="#CC4442" d="M57.7,257.5c1.6,3.4,3.5,6.9,5.6,10.5c5,2.7,10.6,5.2,17.1,7.4c14.3,4.8,26.3,5.8,36.6,4.9
		c-0.9-1.7-1.9-3.5-2.9-5.2c-8.9-0.7-19.2-2.7-31.6-6.8C72.5,264.9,64.4,261.3,57.7,257.5z"/>
	<g>
		<path fill="#66433C" d="M166.2,50c-0.3-1.6-1.3-2.8-2.3-2.7c-1,0.1-1.6,1.5-1.3,3c0.3,1.6,1.3,2.8,2.3,2.7
			C165.8,52.9,166.4,51.6,166.2,50z"/>
		<path fill="#66433C" d="M156.4,51c-0.3-1.8-1.3-3.2-2.4-3.2c-1.1,0-1.8,1.6-1.5,3.4c0.3,1.8,1.3,3.3,2.4,3.2
			C156,54.3,156.7,52.8,156.4,51z"/>
		<path fill="#66433C" d="M150.7,50.8c0,0,3-2.7,6-2.5c0,0-1-1.4-3.1-0.8C151.5,48.1,150.7,50.8,150.7,50.8z"/>
		<path fill="#66433C" d="M167.2,48.5c0,0-3.3-1.6-5.9-0.6c0,0,0.4-1.4,2.4-1.5C165.7,46.4,167.2,48.5,167.2,48.5z"/>
		<g>
			<path fill="#A92E2E" d="M149.4,47.5l-0.2-0.4c0.7-2.5,3.2-4.3,4.8-4.7l0.4,1.4C153.1,43.8,150.4,45.4,149.4,47.5z"/>
		</g>
		<g>
			<path fill="#A92E2E" d="M167,45c-2.1-2.1-5.5-2.3-6.2-2.1l-0.1-1.4c0.9-0.2,4.1,0.3,6.5,3L167,45z"/>
		</g>
		<path fill="#EB7D5A" d="M162.7,55.6c0,0.1,0,0.1,0,0.2c-0.1,1-1.2,1.7-2.3,1.4c-0.7-0.2-1.2-0.6-1.5-1.1c-0.1,1,0.7,1.9,1.7,2.2
			c1.1,0.3,2.2-0.4,2.3-1.4C163,56.3,162.9,55.9,162.7,55.6z"/>
		<path fill="#491D2E" d="M157.4,61.5l6.9-0.5c0,0-0.3,3.4-3.1,3.5C158.4,64.7,157.4,61.5,157.4,61.5z"/>
		<path fill="#FDEBEB" d="M157.8,61.6l5.8-0.4c0,0,0.6,1.5-2.7,1.8C157.5,63.3,157.8,61.6,157.8,61.6z"/>
		<path fill="#EE8E6F" d="M162.7,65.5c0-0.4-0.6,0-1.3,0.1c-0.7,0.1-1.4-0.3-1.3,0.1c0,0.4,0.7,0.7,1.4,0.7
			C162.2,66.3,162.8,65.9,162.7,65.5z"/>
	</g>
	<g>
		<path fill="#F8B682" d="M278.3,229.2c1.9,4,1.2,10.4,3.2,12.5c1.5,1.7,8.1,0.7,8.5-0.7c0.4-1.4-9.3-12.3-9.3-12.3L278.3,229.2z"/>
		<path fill="#F8B682" d="M283.3,232.2c3.4,2.1,9.8,4.1,10.9,4.6c1.1,0.5,0.3,1.6-2.9,1c-3.3-0.6-4.2-1.6-5.1-0.5
			C285.2,238.6,281.6,231.1,283.3,232.2z"/>
		<path fill="#F8B682" d="M286,239.2c2,2.2,6.9,7.5,7.7,7c0.8-0.6-6-8.6-6-8.6L286,239.2z"/>
		<path fill="#F8B682" d="M284,240.6c1.3,2.4,4.3,8.4,5.2,8c0.9-0.4-3.2-9.3-3.2-9.3L284,240.6z"/>
		<path fill="#F8B682" d="M280.8,240.7c0.8,3.5,2.9,8.8,3.8,8.4c0.9-0.4-1.7-9.9-1.7-9.9L280.8,240.7z"/>
	</g>
	<path fill="#F8B682" d="M80.6,274.3c0.7-2.1,0.5-3.9-0.3-4.2c-0.8-0.3-2,1.2-2.7,3.2c-0.7,2.1-0.2,3,0.7,3.3
		C79.1,276.9,79.9,276.4,80.6,274.3z"/>
	<path fill="#F8B682" d="M83.8,275.3c0.7-2.1,0.5-3.9-0.3-4.2c-0.8-0.3-2,1.2-2.7,3.2c-0.7,2.1-0.2,3,0.7,3.3
		C82.4,277.9,83.2,277.4,83.8,275.3z"/>
	<path fill="#F8B682" d="M87.6,276.2c0.7-2.1,0.5-3.9-0.3-4.2c-0.8-0.3-2,1.2-2.7,3.2c-0.7,2.1-0.2,3,0.7,3.3
		C86.2,278.7,87,278.2,87.6,276.2z"/>
	<path fill="#F8B682" d="M81.9,269.8c2,0.8,3.9,0.9,4.2,0.1c0.3-0.8-1-2.1-3-3c-2-0.8-3-0.4-3.3,0.4C79.5,268,79.9,268.9,81.9,269.8
		z"/>
</g>
</svg>
